<?xml version="1.0" encoding="UTF-8" standalone="no"?>
<!DOCTYPE svg PUBLIC "-//W3C//DTD SVG 1.1//EN" "http://www.w3.org/Graphics/SVG/1.1/DTD/svg11.dtd">
<svg width="100%" height="100%" viewBox="0 0 64 64" version="1.1" xmlns="http://www.w3.org/2000/svg" xmlns:xlink="http://www.w3.org/1999/xlink" xml:space="preserve" xmlns:serif="http://www.serif.com/" style="fill-rule:evenodd;clip-rule:evenodd;stroke-linejoin:round;stroke-miterlimit:2;">
    <path d="M33,4L4,4L4,33L33,4Z" style="fill:rgb(75,125,203);"/>
    <path d="M19.5,24.822L1.822,42.5L19.5,60.178L19.5,24.822Z" style="fill:rgb(221,80,49);"/>
    <path d="M60.178,19.5L42.5,1.822L24.822,19.5L60.178,19.5Z" style="fill:rgb(96,208,63);"/>
    <path d="M40.911,38.082L37.918,35.707C36.987,34.962 36.359,34.284 36.033,33.672C35.707,33.06 35.544,32.415 35.544,31.737C35.544,30.646 35.989,29.705 36.881,28.913C37.772,28.122 39.195,27.726 41.151,27.726C43.146,27.726 44.802,28.032 46.119,28.644C47.436,29.256 48.094,30.1 48.094,31.178C48.094,31.763 47.895,32.219 47.496,32.545C47.097,32.871 46.625,33.034 46.079,33.034C45.148,33.034 44.137,32.395 43.046,31.118C41.982,29.868 40.871,29.242 39.714,29.242C39.036,29.242 38.417,29.425 37.858,29.791C37.3,30.157 37.02,30.706 37.02,31.437C37.02,32.129 37.343,32.761 37.988,33.333C38.633,33.905 39.8,34.55 41.49,35.268C43.924,36.306 45.66,37.181 46.698,37.892C47.735,38.604 48.64,39.715 49.411,41.224C50.183,42.734 50.569,44.427 50.569,46.303C50.569,49.069 49.647,51.371 47.805,53.206C45.963,55.042 43.771,55.96 41.23,55.96C38.863,55.96 36.817,55.125 35.095,53.456C33.372,51.786 32.511,49.602 32.511,46.901C32.511,42.392 35.311,39.452 40.911,38.082ZM41.809,39.199C40.652,39.691 39.784,40.436 39.205,41.434C38.627,42.432 38.337,44.234 38.337,46.841C38.337,50.074 38.587,52.162 39.085,53.107C39.584,54.051 40.326,54.523 41.31,54.523C43.545,54.523 44.662,52.262 44.662,47.739C44.662,44.493 43.711,41.647 41.809,39.199Z" style="fill-rule:nonzero;"/>
</svg>
